<mxfile host="app.diagrams.net" modified="2020-08-20T10:47:19.249Z" agent="5.0 (Macintosh; Intel Mac OS X 10_15_6) AppleWebKit/537.36 (KHTML, like Gecko) Chrome/84.0.4147.125 Safari/537.36" etag="9shaywz-8OKdEvNJJUUQ" version="13.6.3" type="github">
  <diagram id="Zqko86Jw6SL07jLe1bMI" name="Page-1">
    <mxGraphModel dx="1448" dy="871" grid="1" gridSize="10" guides="1" tooltips="1" connect="1" arrows="1" fold="1" page="1" pageScale="1" pageWidth="827" pageHeight="1169" math="0" shadow="0">
      <root>
        <mxCell id="0" />
        <mxCell id="1" parent="0" />
        <mxCell id="dfsEKLthOqDB2xlvtcXD-29" value="" style="rounded=0;whiteSpace=wrap;html=1;fillColor=#E6E6E6;" vertex="1" parent="1">
          <mxGeometry x="120" y="140" width="580" height="80" as="geometry" />
        </mxCell>
        <mxCell id="dfsEKLthOqDB2xlvtcXD-30" value="" style="rounded=0;whiteSpace=wrap;html=1;fillColor=#E6E6E6;" vertex="1" parent="1">
          <mxGeometry x="120" y="220" width="580" height="220" as="geometry" />
        </mxCell>
        <mxCell id="dfsEKLthOqDB2xlvtcXD-31" value="" style="rounded=0;whiteSpace=wrap;html=1;fillColor=#E6E6E6;" vertex="1" parent="1">
          <mxGeometry x="120" y="440" width="580" height="80" as="geometry" />
        </mxCell>
        <mxCell id="dfsEKLthOqDB2xlvtcXD-1" value="risk model" style="shape=process;whiteSpace=wrap;html=1;backgroundOutline=1;fillColor=#B3B3B3;" vertex="1" parent="1">
          <mxGeometry x="354" y="240" width="120" height="60" as="geometry" />
        </mxCell>
        <mxCell id="dfsEKLthOqDB2xlvtcXD-11" style="edgeStyle=orthogonalEdgeStyle;rounded=0;orthogonalLoop=1;jettySize=auto;html=1;exitX=0.5;exitY=0;exitDx=0;exitDy=0;fillColor=#B3B3B3;" edge="1" parent="1" source="dfsEKLthOqDB2xlvtcXD-2" target="dfsEKLthOqDB2xlvtcXD-1">
          <mxGeometry relative="1" as="geometry" />
        </mxCell>
        <mxCell id="dfsEKLthOqDB2xlvtcXD-37" style="edgeStyle=orthogonalEdgeStyle;rounded=0;orthogonalLoop=1;jettySize=auto;html=1;exitX=0;exitY=0.25;exitDx=0;exitDy=0;entryX=1;entryY=0.5;entryDx=0;entryDy=0;fillColor=#B3B3B3;" edge="1" parent="1" source="dfsEKLthOqDB2xlvtcXD-2" target="dfsEKLthOqDB2xlvtcXD-35">
          <mxGeometry relative="1" as="geometry" />
        </mxCell>
        <mxCell id="dfsEKLthOqDB2xlvtcXD-2" value="rmc topology" style="shape=process;whiteSpace=wrap;html=1;backgroundOutline=1;fillColor=#B3B3B3;" vertex="1" parent="1">
          <mxGeometry x="354" y="350" width="120" height="60" as="geometry" />
        </mxCell>
        <mxCell id="dfsEKLthOqDB2xlvtcXD-8" style="edgeStyle=orthogonalEdgeStyle;rounded=0;orthogonalLoop=1;jettySize=auto;html=1;exitX=0.5;exitY=0;exitDx=0;exitDy=0;entryX=0;entryY=0.5;entryDx=0;entryDy=0;" edge="1" parent="1" source="dfsEKLthOqDB2xlvtcXD-4" target="dfsEKLthOqDB2xlvtcXD-2">
          <mxGeometry relative="1" as="geometry" />
        </mxCell>
        <mxCell id="dfsEKLthOqDB2xlvtcXD-4" value="meta" style="rounded=0;whiteSpace=wrap;html=1;fillColor=#B3B3B3;" vertex="1" parent="1">
          <mxGeometry x="170" y="450" width="120" height="60" as="geometry" />
        </mxCell>
        <mxCell id="dfsEKLthOqDB2xlvtcXD-10" style="edgeStyle=orthogonalEdgeStyle;rounded=0;orthogonalLoop=1;jettySize=auto;html=1;exitX=0.5;exitY=0;exitDx=0;exitDy=0;" edge="1" parent="1" source="dfsEKLthOqDB2xlvtcXD-5" target="dfsEKLthOqDB2xlvtcXD-2">
          <mxGeometry relative="1" as="geometry" />
        </mxCell>
        <mxCell id="dfsEKLthOqDB2xlvtcXD-5" value="trace" style="rounded=0;whiteSpace=wrap;html=1;fillColor=#B3B3B3;" vertex="1" parent="1">
          <mxGeometry x="354" y="450" width="120" height="60" as="geometry" />
        </mxCell>
        <mxCell id="dfsEKLthOqDB2xlvtcXD-9" style="edgeStyle=orthogonalEdgeStyle;rounded=0;orthogonalLoop=1;jettySize=auto;html=1;exitX=0.5;exitY=0;exitDx=0;exitDy=0;entryX=1;entryY=0.5;entryDx=0;entryDy=0;" edge="1" parent="1" source="dfsEKLthOqDB2xlvtcXD-6" target="dfsEKLthOqDB2xlvtcXD-2">
          <mxGeometry relative="1" as="geometry" />
        </mxCell>
        <mxCell id="dfsEKLthOqDB2xlvtcXD-6" value="metric" style="rounded=0;whiteSpace=wrap;html=1;fillColor=#B3B3B3;" vertex="1" parent="1">
          <mxGeometry x="540" y="450" width="120" height="60" as="geometry" />
        </mxCell>
        <mxCell id="dfsEKLthOqDB2xlvtcXD-7" value="监控-应急影响面" style="rounded=1;whiteSpace=wrap;html=1;fillColor=#B3B3B3;" vertex="1" parent="1">
          <mxGeometry x="160" y="150" width="120" height="60" as="geometry" />
        </mxCell>
        <mxCell id="dfsEKLthOqDB2xlvtcXD-12" value="变更核心-变更影响面" style="rounded=1;whiteSpace=wrap;html=1;fillColor=#B3B3B3;" vertex="1" parent="1">
          <mxGeometry x="354" y="150" width="120" height="60" as="geometry" />
        </mxCell>
        <mxCell id="dfsEKLthOqDB2xlvtcXD-13" value="容量自愈-扩容影响面" style="rounded=1;whiteSpace=wrap;html=1;fillColor=#B3B3B3;" vertex="1" parent="1">
          <mxGeometry x="540" y="150" width="120" height="60" as="geometry" />
        </mxCell>
        <mxCell id="dfsEKLthOqDB2xlvtcXD-20" value="SRE 场景规则" style="text;html=1;align=center;verticalAlign=middle;resizable=0;points=[];autosize=1;" vertex="1" parent="1">
          <mxGeometry x="590" y="230" width="90" height="20" as="geometry" />
        </mxCell>
        <mxCell id="dfsEKLthOqDB2xlvtcXD-21" value="算法 精度调优" style="text;html=1;align=center;verticalAlign=middle;resizable=0;points=[];autosize=1;" vertex="1" parent="1">
          <mxGeometry x="590" y="260" width="90" height="20" as="geometry" />
        </mxCell>
        <mxCell id="dfsEKLthOqDB2xlvtcXD-22" value="业务Owner 反馈" style="text;html=1;align=center;verticalAlign=middle;resizable=0;points=[];autosize=1;" vertex="1" parent="1">
          <mxGeometry x="590" y="290" width="100" height="20" as="geometry" />
        </mxCell>
        <mxCell id="dfsEKLthOqDB2xlvtcXD-24" value="调用关系&lt;br&gt;指标相关性&lt;br&gt;依赖关系。。。" style="whiteSpace=wrap;html=1;shape=mxgraph.basic.rectCallout;dx=14.35;dy=13;boundedLbl=1;align=left;" vertex="1" parent="1">
          <mxGeometry x="480" y="290" width="90" height="70" as="geometry" />
        </mxCell>
        <mxCell id="dfsEKLthOqDB2xlvtcXD-25" value="" style="shape=flexArrow;endArrow=classic;html=1;endWidth=36.470588235294116;endSize=5.552941176470588;" edge="1" parent="1">
          <mxGeometry width="50" height="50" relative="1" as="geometry">
            <mxPoint x="412" y="240" as="sourcePoint" />
            <mxPoint x="412" y="210" as="targetPoint" />
          </mxGeometry>
        </mxCell>
        <mxCell id="dfsEKLthOqDB2xlvtcXD-28" style="edgeStyle=orthogonalEdgeStyle;rounded=0;orthogonalLoop=1;jettySize=auto;html=1;exitX=0.1;exitY=0.5;exitDx=0;exitDy=0;exitPerimeter=0;entryX=1;entryY=0.5;entryDx=0;entryDy=0;fillColor=#B3B3B3;" edge="1" parent="1" source="dfsEKLthOqDB2xlvtcXD-27" target="dfsEKLthOqDB2xlvtcXD-1">
          <mxGeometry relative="1" as="geometry" />
        </mxCell>
        <mxCell id="dfsEKLthOqDB2xlvtcXD-27" value="" style="shape=curlyBracket;whiteSpace=wrap;html=1;rounded=1;fillColor=#B3B3B3;" vertex="1" parent="1">
          <mxGeometry x="570" y="230" width="20" height="80" as="geometry" />
        </mxCell>
        <mxCell id="dfsEKLthOqDB2xlvtcXD-38" style="edgeStyle=orthogonalEdgeStyle;rounded=0;orthogonalLoop=1;jettySize=auto;html=1;exitX=1;exitY=0.5;exitDx=0;exitDy=0;entryX=0;entryY=0.5;entryDx=0;entryDy=0;fillColor=#B3B3B3;" edge="1" parent="1" source="dfsEKLthOqDB2xlvtcXD-33" target="dfsEKLthOqDB2xlvtcXD-1">
          <mxGeometry relative="1" as="geometry" />
        </mxCell>
        <mxCell id="dfsEKLthOqDB2xlvtcXD-33" value="&lt;span&gt;在线剪枝&lt;/span&gt;" style="html=1;whiteSpace=wrap;rounded=1;dropTarget=0;shadow=1;fillColor=#CCCCCC;" vertex="1" parent="1">
          <mxGeometry x="160" y="270" width="120" height="50" as="geometry" />
        </mxCell>
        <mxCell id="dfsEKLthOqDB2xlvtcXD-34" value="" style="html=1;shape=message;outlineConnect=0;fillColor=#CCCCCC;" vertex="1" parent="dfsEKLthOqDB2xlvtcXD-33">
          <mxGeometry width="20" height="14" relative="1" as="geometry">
            <mxPoint x="7" y="7" as="offset" />
          </mxGeometry>
        </mxCell>
        <mxCell id="dfsEKLthOqDB2xlvtcXD-35" value="离线清洗" style="html=1;whiteSpace=wrap;rounded=1;dropTarget=0;shadow=1;fillColor=#CCCCCC;" vertex="1" parent="1">
          <mxGeometry x="160" y="320" width="120" height="50" as="geometry" />
        </mxCell>
        <mxCell id="dfsEKLthOqDB2xlvtcXD-36" value="" style="html=1;shape=message;outlineConnect=0;fillColor=#CCCCCC;" vertex="1" parent="dfsEKLthOqDB2xlvtcXD-35">
          <mxGeometry width="20" height="14" relative="1" as="geometry">
            <mxPoint x="7" y="7" as="offset" />
          </mxGeometry>
        </mxCell>
      </root>
    </mxGraphModel>
  </diagram>
</mxfile>
